# xmcd CD database file
#
# Track frame offsets:
#	150
#	27752
#	47634
#	71326
#	94198
#	108080
#	132552
#	154319
#	178011
#	190683
#	203490
#	227447
#	240954
#
# Disc length: 3528 seconds
#
# Revision: 0
# Processed by: cddbd v1.5.2PL0 Copyright (c) Steve Scherf et al.
# Submitted via: CDex 1.51
#
DISCID=9c0dc60d
DTITLE=Eric Plandé Group - Light Of The Shadow
DYEAR=2002
DGENRE=Jazz
TTITLE0=Angels From Nowhere
TTITLE1=Moon Over Bourbon Street
TTITLE2=Ivresse
TTITLE3=Flower Of The Sand
TTITLE4=Light Of The Shadow
TTITLE5=Lichana
TTITLE6=L'envers Du Décors
TTITLE7=Broken Way
TTITLE8=City
TTITLE9=Onde de Choc
TTITLE10=Time Tunnel
TTITLE11=Etats D'âme
TTITLE12=C'rever
EXTD=YEAR: 2002
EXTT0=
EXTT1=
EXTT2=
EXTT3=
EXTT4=
EXTT5=
EXTT6=
EXTT7=
EXTT8=
EXTT9=
EXTT10=
EXTT11=
EXTT12=
PLAYORDER=
